<svg xmlns="http://www.w3.org/2000/svg" width="357" height="357" fill="none" viewBox="0 0 357 357"><g filter="url(#a)" opacity=".6"><path fill="#c01f1f" d="M130 178.5c0-26.786 21.714-48.5 48.5-48.5s48.5 21.714 48.5 48.5-21.714 48.5-48.5 48.5-48.5-21.714-48.5-48.5"/></g><path stroke="#c01f1f" stroke-linecap="round" stroke-linejoin="round" stroke-width="4.167" d="M193.5 163.5h-30c-.92 0-1.667.746-1.667 1.667v5c0 .92.747 1.666 1.667 1.666h30c.921 0 1.667-.746 1.667-1.666v-5c0-.921-.746-1.667-1.667-1.667M165.167 171.833v18.334a3.333 3.333 0 0 0 3.333 3.333h20a3.333 3.333 0 0 0 3.333-3.333v-18.334M175.167 178.5h6.666"/><defs><filter id="a" width="357" height="357" x="0" y="0" color-interpolation-filters="sRGB" filterUnits="userSpaceOnUse"><feFlood flood-opacity="0" result="BackgroundImageFix"/><feBlend in="SourceGraphic" in2="BackgroundImageFix" result="shape"/><feGaussianBlur result="effect1_foregroundBlur_8098_485" stdDeviation="65"/></filter></defs></svg>