<svg xmlns="http://www.w3.org/2000/svg" width="20" height="20" fill="none" viewBox="0 0 20 20"><path fill="#fff" d="m5.877 7.149-.303.303-.002.002a1.6 1.6 0 0 0 .002 2.261l4.027 4.027a1.603 1.603 0 0 0 2.263 0l.303-.303 3.526 3.525c-1.002.899-1.8 1.431-2.499 1.73-.792.34-1.494.39-2.214.177-.69-.204-1.459-.669-2.424-1.475s-2.02-1.86-3.317-3.157C3.935 12.936 2.845 11.855 2 10.856 1.152 9.852.656 9.048.445 8.336.237 7.633.274 6.934.622 6.122c.3-.698.83-1.497 1.73-2.5zM.31 10.98v-.001m6.21-2.322v.001M0 4.353z"/><path stroke="#fff" stroke-width="1.5" d="M14.947 9.415q0-.015-.022-.138c-.44-2.435-2.399-4.31-4.838-4.722M18.763 8.372c0-.014-.013-.09-.036-.217-.691-3.823-3.766-6.767-7.596-7.415"/></svg>