<svg xmlns="http://www.w3.org/2000/svg" width="45" height="45" fill="none" viewBox="0 0 45 45"><circle cx="22.024" cy="22.024" r="22.024" fill="#40d349"/><path fill="#40d349" stroke="#fff" stroke-width="3" d="M22.455 10.505c6.353 0 11.518 5.167 11.518 11.52s-5.165 11.52-11.518 11.52a11.43 11.43 0 0 1-5.876-1.617l-2.388.226-1.823.171.192-1.82.232-2.217a11.44 11.44 0 0 1-1.858-6.263c0-6.354 5.163-11.52 11.516-11.52z"/><path fill="#fff" stroke="#fff" stroke-width=".5" d="M19.03 16.35h-.002c.137.007.317.011.48.118a.9.9 0 0 1 .297.36l.079.17c.245.591.828 2.015.895 2.156.074.155.199.456.04.765h-.002c-.109.23-.212.342-.357.509q-.119.134-.225.244c-.07.076-.137.149-.205.232l-.004.005a.7.7 0 0 0-.128.18c-.007.022-.017.064.037.157.169.286.74 1.216 1.575 1.958 1.084.966 1.956 1.271 2.28 1.406l.065.022c.15.041.287.005.362-.074.21-.227.473-.608.762-1.012a.85.85 0 0 1 .475-.348.88.88 0 0 1 .528.04c.153.053.597.262 1.017.465.43.208.862.422 1.01.495.131.066.275.131.372.184.075.04.16.095.23.172l.063.085v.002a.7.7 0 0 1 .07.278q.01.15-.007.352a4 4 0 0 1-.215.966c-.147.414-.497.763-.883 1.025a3.8 3.8 0 0 1-1.267.55 2.9 2.9 0 0 1-1.18.026c-.552-.087-1.319-.312-2.478-.793-3.02-1.251-4.959-4.311-5.091-4.485l-.004-.004.202-.148-.202.147c-.072-.099-.379-.508-.668-1.078-.288-.568-.57-1.316-.57-2.091 0-1.54.792-2.302 1.096-2.613.307-.313.784-.435 1.204-.435.131 0 .25.007.348.012Z"/></svg>