<svg xmlns="http://www.w3.org/2000/svg" width="45" height="45" fill="none" viewBox="0 0 45 45"><circle cx="22.024" cy="22.024" r="22.024" fill="#de4168"/><path fill="#fff" d="M22.024 10.765c3.06 0 3.441.012 4.641.068s2.016.244 2.734.524a5.5 5.5 0 0 1 1.995 1.298 5.5 5.5 0 0 1 1.298 1.995c.278.717.467 1.534.524 2.733.053 1.2.067 1.582.067 4.641s-.011 3.441-.067 4.641-.246 2.016-.524 2.734a5.5 5.5 0 0 1-1.298 1.995 5.5 5.5 0 0 1-1.995 1.298c-.717.278-1.535.467-2.734.524-1.2.053-1.582.067-4.64.067-3.06 0-3.441-.011-4.642-.067-1.199-.057-2.015-.246-2.733-.524a5.5 5.5 0 0 1-1.995-1.298 5.5 5.5 0 0 1-1.298-1.995c-.28-.717-.468-1.535-.524-2.734-.053-1.2-.068-1.582-.068-4.64 0-3.06.012-3.441.068-4.642.056-1.2.244-2.015.524-2.733a5.5 5.5 0 0 1 1.298-1.995 5.5 5.5 0 0 1 1.995-1.298c.718-.28 1.533-.468 2.733-.524 1.2-.053 1.582-.068 4.641-.068m0 5.63a5.63 5.63 0 1 0 0 11.258 5.63 5.63 0 0 0 0-11.258m7.319-.282a1.407 1.407 0 1 0-2.815 0 1.407 1.407 0 0 0 2.815 0m-7.319 2.534a3.378 3.378 0 1 1 0 6.755 3.378 3.378 0 0 1 0-6.755"/></svg>